<svg width="115" height="16" viewBox="0 0 115 16" fill="none" xmlns="http://www.w3.org/2000/svg">
<path d="M0.457031 15C0.613281 14.6484 0.773438 14.25 0.9375 13.8047C1.10156 13.3516 1.32031 12.7109 1.59375 11.8828L4.85156 2.16797H7.98047L11.2266 11.8828C11.5 12.7031 11.7188 13.3398 11.8828 13.793C12.0547 14.2461 12.2188 14.6484 12.375 15H9.79688L8.82422 11.8828H4.04297L3.07031 15H0.457031ZM4.61719 9.99609H8.22656L6.41016 4.20703L4.61719 9.99609ZM18.7617 15.2109C17.9102 15.2109 17.1094 15.125 16.3594 14.9531C15.6094 14.7812 14.9023 14.6094 14.2383 14.4375V5.07422C14.2383 4.65234 14.2344 4.18359 14.2266 3.66797C14.2266 3.15234 14.2188 2.65234 14.2031 2.16797C14.1875 1.67578 14.1562 1.26562 14.1094 0.9375H16.6992C16.6992 0.9375 16.6992 1.13672 16.6992 1.53516C16.6992 1.93359 16.6992 2.4375 16.6992 3.04688C16.6992 3.64844 16.6992 4.26953 16.6992 4.91016C16.6992 5.55078 16.6992 6.11719 16.6992 6.60938C16.6992 7.10156 16.6992 7.42578 16.6992 7.58203C17.0898 7.08984 17.5547 6.67969 18.0938 6.35156C18.6406 6.02344 19.2695 5.85938 19.9805 5.85938C20.5586 5.85938 21.0703 6.04688 21.5156 6.42188C21.9609 6.79688 22.3086 7.31641 22.5586 7.98047C22.8086 8.63672 22.9336 9.39453 22.9336 10.2539C22.9336 11.7617 22.5547 12.9648 21.7969 13.8633C21.0469 14.7617 20.0352 15.2109 18.7617 15.2109ZM18.3633 13.3359C19.0039 13.3359 19.5312 13.082 19.9453 12.5742C20.3594 12.0664 20.5664 11.3984 20.5664 10.5703C20.5664 9.78125 20.4336 9.16016 20.168 8.70703C19.9102 8.24609 19.5391 8.01562 19.0547 8.01562C18.6016 8.01562 18.1562 8.1875 17.7188 8.53125C17.2891 8.875 16.9492 9.32031 16.6992 9.86719V12.8906C17.043 13.0469 17.332 13.1602 17.5664 13.2305C17.8086 13.3008 18.0742 13.3359 18.3633 13.3359ZM28.7461 15.2109C27.5117 15.2109 26.5 14.8125 25.7109 14.0156C24.9219 13.2109 24.5273 12.0547 24.5273 10.5469C24.5273 9.53906 24.7266 8.6875 25.125 7.99219C25.5312 7.29688 26.0664 6.76953 26.7305 6.41016C27.4023 6.04297 28.1328 5.85938 28.9219 5.85938C30.1641 5.85938 31.1758 6.26172 31.957 7.06641C32.7461 7.87109 33.1406 9.03125 33.1406 10.5469C33.1406 11.5547 32.9375 12.4062 32.5312 13.1016C32.1328 13.7891 31.6016 14.3125 30.9375 14.6719C30.2734 15.0312 29.543 15.2109 28.7461 15.2109ZM28.8398 13.2422C29.4023 13.2422 29.8477 13.0039 30.1758 12.5273C30.5117 12.043 30.6797 11.3828 30.6797 10.5469C30.6797 9.70312 30.5234 9.04297 30.2109 8.56641C29.8984 8.08203 29.4414 7.83984 28.8398 7.83984C28.2695 7.83984 27.8164 8.08203 27.4805 8.56641C27.1523 9.04297 26.9883 9.70312 26.9883 10.5469C26.9883 11.3828 27.1445 12.043 27.457 12.5273C27.7773 13.0039 28.2383 13.2422 28.8398 13.2422ZM37.957 15.2109C36.1211 15.2109 35.2031 13.957 35.2031 11.4492C35.2031 11.4023 35.2031 11.2539 35.2031 11.0039C35.2031 10.7539 35.2031 10.4688 35.2031 10.1484C35.2031 9.82812 35.2031 9.54297 35.2031 9.29297C35.2031 9.04297 35.2031 8.89453 35.2031 8.84766C35.2031 8.29297 35.1953 7.81641 35.1797 7.41797C35.1641 7.01953 35.1133 6.55859 35.0273 6.03516H37.6641C37.6641 6.03516 37.6641 6.22656 37.6641 6.60938C37.6641 6.99219 37.6641 7.46484 37.6641 8.02734C37.6641 8.58203 37.6641 9.12891 37.6641 9.66797C37.6641 10.1992 37.6641 10.6172 37.6641 10.9219C37.6641 11.7109 37.75 12.2891 37.9219 12.6562C38.0938 13.0156 38.4062 13.1953 38.8594 13.1953C39.125 13.1953 39.4062 13.0977 39.7031 12.9023C40.0078 12.6992 40.2852 12.4531 40.5352 12.1641C40.793 11.875 40.9805 11.5977 41.0977 11.332V8.84766C41.0977 8.26953 41.0859 7.79297 41.0625 7.41797C41.0469 7.03516 41 6.57422 40.9219 6.03516H43.5586C43.5586 6.03516 43.5586 6.21094 43.5586 6.5625C43.5586 6.91406 43.5586 7.35938 43.5586 7.89844C43.5586 8.4375 43.5586 8.99219 43.5586 9.5625C43.5586 10.125 43.5586 10.6211 43.5586 11.0508C43.5586 11.9023 43.6055 12.6523 43.6992 13.3008C43.8008 13.9414 43.9453 14.5078 44.1328 15H41.8008C41.7227 14.8125 41.6328 14.5703 41.5312 14.2734C41.4297 13.9766 41.3594 13.6797 41.3203 13.3828C40.2578 14.6016 39.1367 15.2109 37.957 15.2109ZM49.8281 15.2109C49.2734 15.2109 48.7656 15.1367 48.3047 14.9883C47.8516 14.8398 47.4883 14.5781 47.2148 14.2031C46.9492 13.8281 46.8164 13.3047 46.8164 12.6328V3.39844H49.2773V10.9453C49.2773 11.6094 49.3125 12.1016 49.3828 12.4219C49.4609 12.7422 49.582 12.9531 49.7461 13.0547C49.9102 13.1484 50.125 13.1953 50.3906 13.1953C50.6172 13.1953 50.8672 13.1406 51.1406 13.0312C51.4219 12.9141 51.7383 12.75 52.0898 12.5391V14.5078C51.668 14.7656 51.2656 14.9453 50.8828 15.0469C50.5 15.1562 50.1484 15.2109 49.8281 15.2109ZM45.1406 7.93359V6.17578H51.9492V7.93359H45.1406ZM59.2969 15C59.3594 14.6484 59.3945 14.1406 59.4023 13.4766C59.418 12.8125 59.4258 12.0469 59.4258 11.1797V6.21094C59.4258 5.35156 59.418 4.55078 59.4023 3.80859C59.3945 3.06641 59.3594 2.51953 59.2969 2.16797C59.2969 2.16797 59.4375 2.16406 59.7188 2.15625C60.0078 2.14844 60.375 2.14062 60.8203 2.13281C61.2734 2.11719 61.7578 2.10547 62.2734 2.09766C62.7969 2.08984 63.293 2.08594 63.7617 2.08594C65.1836 2.08594 66.332 2.42188 67.207 3.09375C68.0898 3.76562 68.5312 4.77734 68.5312 6.12891C68.5312 7.48047 68.082 8.54688 67.1836 9.32812C66.293 10.1094 65.125 10.5 63.6797 10.5C63.3594 10.5 63.0586 10.4922 62.7773 10.4766C62.5039 10.4609 62.2227 10.4375 61.9336 10.4062V11.1797C61.9336 12.0547 61.9414 12.8242 61.957 13.4883C61.9727 14.1523 62.0078 14.6562 62.0625 15H59.2969ZM63.4102 8.58984C65.1523 8.58984 66.0234 7.79688 66.0234 6.21094C66.0234 5.57812 65.8242 5.0625 65.4258 4.66406C65.0352 4.26562 64.375 4.06641 63.4453 4.06641C63.1094 4.06641 62.8359 4.07031 62.625 4.07812C62.4141 4.07812 62.1836 4.08594 61.9336 4.10156V8.49609C62.1211 8.52734 62.3477 8.55078 62.6133 8.56641C62.8789 8.58203 63.1445 8.58984 63.4102 8.58984ZM74.1914 15.2109C72.957 15.2109 71.9453 14.8125 71.1562 14.0156C70.3672 13.2109 69.9727 12.0547 69.9727 10.5469C69.9727 9.53906 70.1719 8.6875 70.5703 7.99219C70.9766 7.29688 71.5117 6.76953 72.1758 6.41016C72.8477 6.04297 73.5781 5.85938 74.3672 5.85938C75.6094 5.85938 76.6211 6.26172 77.4023 7.06641C78.1914 7.87109 78.5859 9.03125 78.5859 10.5469C78.5859 11.5547 78.3828 12.4062 77.9766 13.1016C77.5781 13.7891 77.0469 14.3125 76.3828 14.6719C75.7188 15.0312 74.9883 15.2109 74.1914 15.2109ZM74.2852 13.2422C74.8477 13.2422 75.293 13.0039 75.6211 12.5273C75.957 12.043 76.125 11.3828 76.125 10.5469C76.125 9.70312 75.9688 9.04297 75.6562 8.56641C75.3438 8.08203 74.8867 7.83984 74.2852 7.83984C73.7148 7.83984 73.2617 8.08203 72.9258 8.56641C72.5977 9.04297 72.4336 9.70312 72.4336 10.5469C72.4336 11.3828 72.5898 12.043 72.9023 12.5273C73.2227 13.0039 73.6836 13.2422 74.2852 13.2422ZM83.9883 15.2109C83.207 15.2109 82.4844 15.1133 81.8203 14.918C81.1641 14.7148 80.6445 14.4805 80.2617 14.2148L80.7422 12.0586C81.1797 12.418 81.707 12.707 82.3242 12.9258C82.9492 13.1367 83.5195 13.2422 84.0352 13.2422C84.4492 13.2422 84.7852 13.1641 85.043 13.0078C85.3086 12.8438 85.4414 12.6602 85.4414 12.457C85.4414 12.1992 85.3047 11.9727 85.0312 11.7773C84.7656 11.5742 84.2148 11.3828 83.3789 11.2031C82.5508 11.0234 81.918 10.8086 81.4805 10.5586C81.043 10.3086 80.7422 10.0234 80.5781 9.70312C80.4219 9.38281 80.3438 9.03906 80.3438 8.67188C80.3438 8.46094 80.4023 8.19922 80.5195 7.88672C80.6367 7.56641 80.8359 7.25391 81.1172 6.94922C81.4062 6.63672 81.7969 6.37891 82.2891 6.17578C82.7891 5.96484 83.4141 5.85938 84.1641 5.85938C84.8828 5.85938 85.5039 5.9375 86.0273 6.09375C86.5586 6.24219 86.9922 6.39844 87.3281 6.5625L86.9883 8.63672C86.6602 8.45703 86.2461 8.27344 85.7461 8.08594C85.2461 7.89062 84.6914 7.79297 84.082 7.79297C83.5664 7.79297 83.2109 7.88281 83.0156 8.0625C82.8203 8.23438 82.7227 8.41016 82.7227 8.58984C82.7227 8.80859 82.8203 8.98047 83.0156 9.10547C83.2188 9.22266 83.707 9.35938 84.4805 9.51562C85.0898 9.63281 85.6445 9.79688 86.1445 10.0078C86.6523 10.2188 87.0586 10.5039 87.3633 10.8633C87.668 11.2227 87.8203 11.6797 87.8203 12.2344C87.8203 12.7969 87.6484 13.3047 87.3047 13.7578C86.9688 14.2031 86.5117 14.5586 85.9336 14.8242C85.3555 15.082 84.707 15.2109 83.9883 15.2109ZM93.4219 15.2109C92.8672 15.2109 92.3594 15.1367 91.8984 14.9883C91.4453 14.8398 91.082 14.5781 90.8086 14.2031C90.543 13.8281 90.4102 13.3047 90.4102 12.6328V3.39844H92.8711V10.9453C92.8711 11.6094 92.9062 12.1016 92.9766 12.4219C93.0547 12.7422 93.1758 12.9531 93.3398 13.0547C93.5039 13.1484 93.7188 13.1953 93.9844 13.1953C94.2109 13.1953 94.4609 13.1406 94.7344 13.0312C95.0156 12.9141 95.332 12.75 95.6836 12.5391V14.5078C95.2617 14.7656 94.8594 14.9453 94.4766 15.0469C94.0938 15.1562 93.7422 15.2109 93.4219 15.2109ZM88.7344 7.93359V6.17578H95.543V7.93359H88.7344ZM112.957 15.2109C112.512 15.2109 112.145 15.0703 111.855 14.7891C111.566 14.5078 111.422 14.1406 111.422 13.6875C111.422 13.2344 111.566 12.8672 111.855 12.5859C112.145 12.2969 112.512 12.1523 112.957 12.1523C113.402 12.1523 113.77 12.2969 114.059 12.5859C114.348 12.8672 114.492 13.2344 114.492 13.6875C114.492 14.1406 114.348 14.5078 114.059 14.7891C113.77 15.0703 113.402 15.2109 112.957 15.2109Z" fill="#FDFEFF"/>
<path d="M97.8398 15C97.8398 15 97.8398 14.8438 97.8398 14.5312C97.8398 14.2109 97.8398 13.8047 97.8398 13.3125C97.8398 12.8203 97.8398 12.3086 97.8398 11.7773C97.8398 11.2461 97.8398 10.7695 97.8398 10.3477C97.8398 9.48828 97.832 8.67188 97.8164 7.89844C97.8008 7.11719 97.7617 6.49609 97.6992 6.03516H100.301C100.301 6.03516 100.301 6.17578 100.301 6.45703C100.301 6.73047 100.301 7.08203 100.301 7.51172C100.301 7.93359 100.301 8.375 100.301 8.83594C100.301 9.28906 100.301 9.69922 100.301 10.0664C100.301 10.4258 100.301 10.6797 100.301 10.8281C100.301 11.2031 100.305 11.6602 100.312 12.1992C100.328 12.7305 100.348 13.2539 100.371 13.7695C100.402 14.2773 100.438 14.6875 100.477 15H97.8398ZM99.0703 4.37109C98.625 4.37109 98.2539 4.23047 97.957 3.94922C97.668 3.66016 97.5234 3.28906 97.5234 2.83594C97.5234 2.38281 97.668 2.01172 97.957 1.72266C98.2539 1.43359 98.625 1.28906 99.0703 1.28906C99.5156 1.28906 99.8828 1.43359 100.172 1.72266C100.461 2.01172 100.605 2.38281 100.605 2.83594C100.605 3.28906 100.461 3.66016 100.172 3.94922C99.8828 4.23047 99.5156 4.37109 99.0703 4.37109ZM106.828 15.2109C106.273 15.2109 105.766 15.1367 105.305 14.9883C104.852 14.8398 104.488 14.5781 104.215 14.2031C103.949 13.8281 103.816 13.3047 103.816 12.6328V3.39844H106.277V10.9453C106.277 11.6094 106.312 12.1016 106.383 12.4219C106.461 12.7422 106.582 12.9531 106.746 13.0547C106.91 13.1484 107.125 13.1953 107.391 13.1953C107.617 13.1953 107.867 13.1406 108.141 13.0312C108.422 12.9141 108.738 12.75 109.09 12.5391V14.5078C108.668 14.7656 108.266 14.9453 107.883 15.0469C107.5 15.1562 107.148 15.2109 106.828 15.2109ZM102.141 7.93359V6.17578H108.949V7.93359H102.141Z" fill="#0086B0"/>
</svg>
