<svg width="21" height="19" viewBox="0 0 21 19" fill="none" xmlns="http://www.w3.org/2000/svg">
<path d="M16.6401 17.0171H2.01565V3.79222H10.8036L12.1331 2.58997H2.01565C1.66305 2.58997 1.32489 2.71663 1.07556 2.9421C0.826228 3.16757 0.686157 3.47337 0.686157 3.79222V17.0171C0.686157 17.3359 0.826228 17.6417 1.07556 17.8672C1.32489 18.0927 1.66305 18.2193 2.01565 18.2193H16.6401C16.9927 18.2193 17.3308 18.0927 17.5802 17.8672C17.8295 17.6417 17.9696 17.3359 17.9696 17.0171V8.00013L16.6401 9.20239V17.0171Z" fill="#757575"/>
<path d="M20.3162 2.4938L18.076 0.467999C17.9766 0.377848 17.8585 0.306322 17.7285 0.257518C17.5984 0.208715 17.459 0.183594 17.3182 0.183594C17.1774 0.183594 17.038 0.208715 16.908 0.257518C16.7779 0.306322 16.6598 0.377848 16.5604 0.467999L7.44672 8.75757L6.70886 11.649C6.67742 11.7892 6.68073 11.9339 6.71853 12.0727C6.75634 12.2116 6.82771 12.3412 6.92751 12.4521C7.02731 12.5631 7.15305 12.6526 7.2957 12.7144C7.43835 12.7761 7.59436 12.8085 7.75251 12.8092C7.83425 12.8173 7.91673 12.8173 7.99846 12.8092L11.2225 12.166L20.3162 3.86438C20.4159 3.77448 20.495 3.66767 20.549 3.55007C20.6029 3.43248 20.6307 3.30641 20.6307 3.17909C20.6307 3.05177 20.6029 2.92571 20.549 2.80811C20.495 2.69052 20.4159 2.58371 20.3162 2.4938ZM10.5311 11.0539L8.09818 11.5408L8.66321 9.3587L15.5234 3.11297L17.398 4.80815L10.5311 11.0539ZM18.1491 4.12888L16.2746 2.43369L17.3049 1.48391L19.1928 3.19112L18.1491 4.12888Z" fill="#757575"/>
</svg>
