<svg width="89" height="24" viewBox="0 0 89 24" fill="none" xmlns="http://www.w3.org/2000/svg">
<rect width="89" height="24" rx="5" fill="#E5BF5E"/>
<path d="M16.3193 17V7.00586H17.9531V15.5986H22.1846V17H16.3193ZM25.6228 17H24.0163V9.43945H25.6228V17ZM23.9206 7.43652C23.9206 7.14941 23.9981 6.92839 24.153 6.77344C24.3126 6.61849 24.5381 6.54102 24.8298 6.54102C25.1124 6.54102 25.3311 6.61849 25.4861 6.77344C25.6456 6.92839 25.7253 7.14941 25.7253 7.43652C25.7253 7.70996 25.6456 7.92643 25.4861 8.08594C25.3311 8.24089 25.1124 8.31836 24.8298 8.31836C24.5381 8.31836 24.3126 8.24089 24.153 8.08594C23.9981 7.92643 23.9206 7.70996 23.9206 7.43652ZM32.0004 10.6562H30.1547V17H28.5414V10.6562H27.2973V9.9043L28.5414 9.41211V8.91992C28.5414 8.02669 28.7511 7.36589 29.1704 6.9375C29.5896 6.50456 30.2299 6.28809 31.0913 6.28809C31.6564 6.28809 32.2123 6.38151 32.7592 6.56836L32.3354 7.78516C31.9389 7.65755 31.5607 7.59375 31.2006 7.59375C30.836 7.59375 30.5694 7.70768 30.4008 7.93555C30.2368 8.15885 30.1547 8.49609 30.1547 8.94727V9.43945H32.0004V10.6562ZM36.8742 17.1367C35.6984 17.1367 34.7778 16.7949 34.1125 16.1113C33.4517 15.4232 33.1213 14.4775 33.1213 13.2744C33.1213 12.0394 33.4289 11.0687 34.0441 10.3623C34.6593 9.65592 35.5047 9.30273 36.5802 9.30273C37.5783 9.30273 38.3667 9.60579 38.9455 10.2119C39.5242 10.818 39.8136 11.652 39.8136 12.7139V13.582H34.7755C34.7983 14.3158 34.9966 14.8809 35.3703 15.2773C35.744 15.6693 36.2703 15.8652 36.9494 15.8652C37.396 15.8652 37.8107 15.8242 38.1935 15.7422C38.5809 15.6556 38.9956 15.5143 39.4377 15.3184V16.624C39.0457 16.8109 38.6492 16.943 38.2482 17.0205C37.8472 17.098 37.3892 17.1367 36.8742 17.1367ZM36.5802 10.5195C36.0698 10.5195 35.6597 10.6813 35.3498 11.0049C35.0444 11.3285 34.8621 11.8001 34.8029 12.4199H38.2345C38.2254 11.7956 38.075 11.3239 37.7834 11.0049C37.4917 10.6813 37.0907 10.5195 36.5802 10.5195ZM46.9979 14.8467C46.9979 15.585 46.7291 16.1523 46.1913 16.5488C45.6535 16.9408 44.8833 17.1367 43.8807 17.1367C42.8736 17.1367 42.0647 16.984 41.454 16.6787V15.291C42.3427 15.7012 43.1698 15.9062 43.9354 15.9062C44.9244 15.9062 45.4188 15.6077 45.4188 15.0107C45.4188 14.8193 45.3641 14.6598 45.2548 14.5322C45.1454 14.4046 44.9654 14.2725 44.7147 14.1357C44.4641 13.999 44.1154 13.8441 43.6688 13.6709C42.7984 13.3337 42.2082 12.9964 41.8983 12.6592C41.593 12.3219 41.4403 11.8844 41.4403 11.3467C41.4403 10.6995 41.7001 10.1982 42.2196 9.84277C42.7437 9.48275 43.4546 9.30273 44.3524 9.30273C45.2411 9.30273 46.0819 9.48275 46.8749 9.84277L46.3554 11.0527C45.5396 10.7155 44.8537 10.5469 44.2977 10.5469C43.4501 10.5469 43.0263 10.7884 43.0263 11.2715C43.0263 11.5085 43.1356 11.709 43.3544 11.873C43.5777 12.0371 44.0608 12.2627 44.8036 12.5498C45.4279 12.7913 45.8814 13.0124 46.1639 13.2129C46.4465 13.4134 46.6561 13.6458 46.7929 13.9102C46.9296 14.1699 46.9979 14.4821 46.9979 14.8467ZM51.8375 15.8379C52.2294 15.8379 52.6214 15.7764 53.0133 15.6533V16.8633C52.8355 16.9408 52.6054 17.0046 52.3229 17.0547C52.0449 17.1094 51.7555 17.1367 51.4547 17.1367C49.9326 17.1367 49.1715 16.3346 49.1715 14.7305V10.6562H48.1393V9.94531L49.2467 9.35742L49.7936 7.75781H50.7848V9.43945H52.9381V10.6562H50.7848V14.7031C50.7848 15.0905 50.8805 15.3776 51.0719 15.5645C51.2678 15.7467 51.523 15.8379 51.8375 15.8379ZM53.6624 9.43945H55.4124L56.9505 13.7256C57.1829 14.3363 57.3379 14.9105 57.4154 15.4482H57.47C57.5111 15.1976 57.5863 14.8945 57.6956 14.5391C57.805 14.179 58.3838 12.4792 59.432 9.43945H61.1683L57.9349 18.0049C57.347 19.5771 56.3672 20.3633 54.9954 20.3633C54.64 20.3633 54.2936 20.3245 53.9564 20.2471V18.9756C54.1979 19.0303 54.4736 19.0576 54.7835 19.0576C55.5583 19.0576 56.1029 18.6087 56.4173 17.7109L56.6976 17L53.6624 9.43945ZM64.2032 17H62.5967V6.36328H64.2032V17ZM70.0886 17.1367C68.9129 17.1367 67.9923 16.7949 67.3269 16.1113C66.6661 15.4232 66.3357 14.4775 66.3357 13.2744C66.3357 12.0394 66.6433 11.0687 67.2586 10.3623C67.8738 9.65592 68.7192 9.30273 69.7947 9.30273C70.7927 9.30273 71.5811 9.60579 72.1599 10.2119C72.7387 10.818 73.0281 11.652 73.0281 12.7139V13.582H67.99C68.0128 14.3158 68.211 14.8809 68.5847 15.2773C68.9584 15.6693 69.4848 15.8652 70.1638 15.8652C70.6104 15.8652 71.0252 15.8242 71.408 15.7422C71.7953 15.6556 72.2101 15.5143 72.6521 15.3184V16.624C72.2602 16.8109 71.8637 16.943 71.4627 17.0205C71.0616 17.098 70.6036 17.1367 70.0886 17.1367ZM69.7947 10.5195C69.2843 10.5195 68.8741 10.6813 68.5642 11.0049C68.2589 11.3285 68.0766 11.8001 68.0173 12.4199H71.449C71.4399 11.7956 71.2895 11.3239 70.9978 11.0049C70.7061 10.6813 70.3051 10.5195 69.7947 10.5195Z" fill="#FDFEFF"/>
</svg>
