<svg width="89" height="24" viewBox="0 0 89 24" fill="none" xmlns="http://www.w3.org/2000/svg">
<rect width="89" height="24" rx="5" fill="#41D750"/>
<path d="M28.6455 17H26.6426L21.7275 9.03613H21.6729L21.707 9.48047C21.7708 10.3281 21.8027 11.1029 21.8027 11.8047V17H20.3193V7.00586H22.3018L27.2031 14.9287H27.2441C27.235 14.8239 27.2168 14.4434 27.1895 13.7871C27.1621 13.1263 27.1484 12.6113 27.1484 12.2422V7.00586H28.6455V17ZM36.1237 17L35.8025 15.9473H35.7478C35.3832 16.4076 35.0163 16.722 34.6472 16.8906C34.278 17.0547 33.8041 17.1367 33.2253 17.1367C32.4825 17.1367 31.9014 16.9362 31.4821 16.5352C31.0674 16.1341 30.8601 15.5667 30.8601 14.833C30.8601 14.0537 31.1495 13.4658 31.7282 13.0693C32.307 12.6729 33.1889 12.4564 34.3737 12.4199L35.6794 12.3789V11.9756C35.6794 11.4925 35.5655 11.1325 35.3376 10.8955C35.1143 10.654 34.7657 10.5332 34.2917 10.5332C33.9043 10.5332 33.5329 10.5902 33.1775 10.7041C32.822 10.818 32.4802 10.9525 32.1521 11.1074L31.6325 9.95898C32.0427 9.74479 32.4916 9.58301 32.9792 9.47363C33.4668 9.3597 33.9271 9.30273 34.3601 9.30273C35.3217 9.30273 36.0463 9.51237 36.5339 9.93164C37.0261 10.3509 37.2722 11.0094 37.2722 11.9072V17H36.1237ZM33.7312 15.9062C34.3145 15.9062 34.7816 15.7445 35.1325 15.4209C35.488 15.0928 35.6657 14.6348 35.6657 14.0469V13.3906L34.695 13.4316C33.9385 13.459 33.3871 13.5866 33.0407 13.8145C32.6989 14.0378 32.528 14.3818 32.528 14.8467C32.528 15.1839 32.6283 15.446 32.8288 15.6328C33.0293 15.8151 33.3301 15.9062 33.7312 15.9062ZM42.6108 15.8379C43.0027 15.8379 43.3946 15.7764 43.7866 15.6533V16.8633C43.6088 16.9408 43.3787 17.0046 43.0961 17.0547C42.8181 17.1094 42.5287 17.1367 42.228 17.1367C40.7058 17.1367 39.9448 16.3346 39.9448 14.7305V10.6562H38.9125V9.94531L40.02 9.35742L40.5668 7.75781H41.558V9.43945H43.7114V10.6562H41.558V14.7031C41.558 15.0905 41.6537 15.3776 41.8452 15.5645C42.0411 15.7467 42.2963 15.8379 42.6108 15.8379ZM50.9162 17L50.6906 16.0088H50.6086C50.3852 16.3597 50.0662 16.6354 49.6515 16.8359C49.2414 17.0365 48.772 17.1367 48.2433 17.1367C47.3273 17.1367 46.6437 16.9089 46.1925 16.4531C45.7414 15.9974 45.5158 15.307 45.5158 14.3818V9.43945H47.1359V14.1016C47.1359 14.6803 47.2544 15.1156 47.4914 15.4072C47.7283 15.6943 48.0998 15.8379 48.6056 15.8379C49.2801 15.8379 49.7746 15.6374 50.089 15.2363C50.408 14.8307 50.5675 14.154 50.5675 13.2061V9.43945H52.1808V17H50.9162ZM58.5858 9.30273C58.9094 9.30273 59.176 9.32552 59.3856 9.37109L59.2284 10.8682C59.0005 10.8135 58.7636 10.7861 58.5175 10.7861C57.8749 10.7861 57.3531 10.9958 56.952 11.415C56.5555 11.8343 56.3573 12.3789 56.3573 13.0488V17H54.7509V9.43945H56.0087L56.2206 10.7725H56.3026C56.5533 10.3213 56.8791 9.96354 57.2802 9.69922C57.6858 9.4349 58.121 9.30273 58.5858 9.30273ZM64.3756 17.1367C63.1998 17.1367 62.2792 16.7949 61.6139 16.1113C60.9531 15.4232 60.6227 14.4775 60.6227 13.2744C60.6227 12.0394 60.9303 11.0687 61.5455 10.3623C62.1607 9.65592 63.0061 9.30273 64.0816 9.30273C65.0797 9.30273 65.8681 9.60579 66.4469 10.2119C67.0257 10.818 67.315 11.652 67.315 12.7139V13.582H62.277C62.2997 14.3158 62.498 14.8809 62.8717 15.2773C63.2454 15.6693 63.7717 15.8652 64.4508 15.8652C64.8974 15.8652 65.3121 15.8242 65.6949 15.7422C66.0823 15.6556 66.497 15.5143 66.9391 15.3184V16.624C66.5471 16.8109 66.1507 16.943 65.7496 17.0205C65.3486 17.098 64.8906 17.1367 64.3756 17.1367ZM64.0816 10.5195C63.5712 10.5195 63.1611 10.6813 62.8512 11.0049C62.5458 11.3285 62.3635 11.8001 62.3043 12.4199H65.7359C65.7268 11.7956 65.5764 11.3239 65.2848 11.0049C64.9931 10.6813 64.5921 10.5195 64.0816 10.5195Z" fill="#FDFEFF"/>
</svg>
