<svg width="105" height="24" viewBox="0 0 105 24" fill="none" xmlns="http://www.w3.org/2000/svg">
<rect width="105" height="24" rx="5" fill="#6397E5"/>
<path d="M17.7715 17H16.1377V8.40723H13.1982V7.00586H20.7109V8.40723H17.7715V17ZM25.6599 17.1367C24.4841 17.1367 23.5635 16.7949 22.8982 16.1113C22.2374 15.4232 21.907 14.4775 21.907 13.2744C21.907 12.0394 22.2146 11.0687 22.8298 10.3623C23.445 9.65592 24.2904 9.30273 25.3659 9.30273C26.364 9.30273 27.1524 9.60579 27.7312 10.2119C28.3099 10.818 28.5993 11.652 28.5993 12.7139V13.582H23.5612C23.584 14.3158 23.7823 14.8809 24.156 15.2773C24.5297 15.6693 25.056 15.8652 25.7351 15.8652C26.1817 15.8652 26.5964 15.8242 26.9792 15.7422C27.3666 15.6556 27.7813 15.5143 28.2234 15.3184V16.624C27.8314 16.8109 27.4349 16.943 27.0339 17.0205C26.6329 17.098 26.1749 17.1367 25.6599 17.1367ZM25.3659 10.5195C24.8555 10.5195 24.4454 10.6813 24.1355 11.0049C23.8301 11.3285 23.6478 11.8001 23.5886 12.4199H27.0202C27.0111 11.7956 26.8607 11.3239 26.5691 11.0049C26.2774 10.6813 25.8764 10.5195 25.3659 10.5195ZM33.7534 17.1367C32.6095 17.1367 31.739 16.804 31.142 16.1387C30.5496 15.4688 30.2534 14.5094 30.2534 13.2607C30.2534 11.9893 30.5633 11.0117 31.183 10.3281C31.8074 9.64453 32.7075 9.30273 33.8832 9.30273C34.6808 9.30273 35.3985 9.45085 36.0366 9.74707L35.5512 11.0391C34.8722 10.7747 34.3116 10.6426 33.8696 10.6426C32.5616 10.6426 31.9077 11.5107 31.9077 13.2471C31.9077 14.0947 32.0694 14.7327 32.393 15.1611C32.7211 15.585 33.1996 15.7969 33.8286 15.7969C34.544 15.7969 35.2208 15.6191 35.8588 15.2637V16.665C35.5717 16.8337 35.2641 16.9544 34.936 17.0273C34.6124 17.1003 34.2182 17.1367 33.7534 17.1367ZM44.5675 17H42.9543V12.3516C42.9543 11.7682 42.8358 11.333 42.5988 11.0459C42.3664 10.7588 41.9949 10.6152 41.4845 10.6152C40.8101 10.6152 40.3133 10.818 39.9943 11.2236C39.6798 11.6247 39.5226 12.2992 39.5226 13.2471V17H37.9162V6.36328H39.5226V9.06348C39.5226 9.49642 39.4953 9.95898 39.4406 10.4512H39.5431C39.7619 10.0866 40.0649 9.80404 40.4523 9.60352C40.8442 9.40299 41.3 9.30273 41.8195 9.30273C43.6515 9.30273 44.5675 10.2256 44.5675 12.0713V17ZM53.7343 17H52.121V12.3516C52.121 11.7682 52.0025 11.333 51.7655 11.0459C51.5331 10.7588 51.1617 10.6152 50.6512 10.6152C49.9722 10.6152 49.4755 10.8158 49.161 11.2168C48.8466 11.6178 48.6893 12.29 48.6893 13.2334V17H47.0829V9.43945H48.3407L48.5663 10.4307H48.6483C48.8762 10.0706 49.1998 9.79264 49.619 9.59668C50.0383 9.40072 50.5031 9.30273 51.0136 9.30273C52.8274 9.30273 53.7343 10.2256 53.7343 12.0713V17ZM62.9557 13.2061C62.9557 14.4411 62.6389 15.4049 62.0055 16.0977C61.372 16.7904 60.4902 17.1367 59.36 17.1367C58.6536 17.1367 58.0292 16.9772 57.4869 16.6582C56.9446 16.3392 56.5276 15.8812 56.2359 15.2842C55.9443 14.6872 55.7984 13.9945 55.7984 13.2061C55.7984 11.9801 56.1129 11.0231 56.7418 10.335C57.3707 9.64681 58.2571 9.30273 59.401 9.30273C60.4947 9.30273 61.3606 9.65592 61.9986 10.3623C62.6367 11.0641 62.9557 12.012 62.9557 13.2061ZM57.4527 13.2061C57.4527 14.9515 58.0976 15.8242 59.3873 15.8242C60.6633 15.8242 61.3014 14.9515 61.3014 13.2061C61.3014 11.4788 60.6588 10.6152 59.3736 10.6152C58.6992 10.6152 58.2092 10.8385 57.9039 11.2852C57.6031 11.7318 57.4527 12.3721 57.4527 13.2061ZM66.6946 17H65.0882V6.36328H66.6946V17ZM75.9844 13.2061C75.9844 14.4411 75.6677 15.4049 75.0342 16.0977C74.4008 16.7904 73.5189 17.1367 72.3887 17.1367C71.6823 17.1367 71.058 16.9772 70.5157 16.6582C69.9733 16.3392 69.5564 15.8812 69.2647 15.2842C68.973 14.6872 68.8272 13.9945 68.8272 13.2061C68.8272 11.9801 69.1416 11.0231 69.7705 10.335C70.3995 9.64681 71.2858 9.30273 72.4297 9.30273C73.5235 9.30273 74.3894 9.65592 75.0274 10.3623C75.6654 11.0641 75.9844 12.012 75.9844 13.2061ZM70.4815 13.2061C70.4815 14.9515 71.1263 15.8242 72.4161 15.8242C73.6921 15.8242 74.3301 14.9515 74.3301 13.2061C74.3301 11.4788 73.6875 10.6152 72.4024 10.6152C71.7279 10.6152 71.238 10.8385 70.9327 11.2852C70.6319 11.7318 70.4815 12.3721 70.4815 13.2061ZM84.5017 9.43945V10.3213L83.2097 10.5605C83.3282 10.7201 83.4262 10.916 83.5037 11.1484C83.5811 11.3809 83.6199 11.627 83.6199 11.8867C83.6199 12.666 83.351 13.279 82.8132 13.7256C82.2755 14.1722 81.5349 14.3955 80.5916 14.3955C80.35 14.3955 80.1313 14.3773 79.9353 14.3408C79.589 14.555 79.4158 14.8057 79.4158 15.0928C79.4158 15.266 79.4955 15.3958 79.655 15.4824C79.8191 15.569 80.1176 15.6123 80.5505 15.6123H81.8699C82.7039 15.6123 83.3373 15.79 83.7703 16.1455C84.2032 16.501 84.4197 17.0137 84.4197 17.6836C84.4197 18.5404 84.0665 19.2012 83.3601 19.666C82.6537 20.1309 81.6329 20.3633 80.2976 20.3633C79.2677 20.3633 78.4815 20.181 77.9392 19.8164C77.3969 19.4518 77.1257 18.9323 77.1257 18.2578C77.1257 17.793 77.2716 17.401 77.5632 17.082C77.8595 16.7676 78.2719 16.5488 78.8005 16.4258C78.5864 16.3346 78.4086 16.1888 78.2673 15.9883C78.1306 15.7832 78.0623 15.569 78.0623 15.3457C78.0623 15.0632 78.142 14.8239 78.3015 14.6279C78.461 14.432 78.698 14.2383 79.0125 14.0469C78.6205 13.8783 78.3015 13.6048 78.0554 13.2266C77.8139 12.8438 77.6931 12.3971 77.6931 11.8867C77.6931 11.0664 77.9506 10.4307 78.4656 9.97949C78.9851 9.52832 79.7234 9.30273 80.6804 9.30273C80.8946 9.30273 81.1179 9.31868 81.3504 9.35059C81.5873 9.37793 81.7651 9.40755 81.8836 9.43945H84.5017ZM78.5613 18.1758C78.5613 18.5221 78.7162 18.7887 79.0261 18.9756C79.3406 19.1624 79.7804 19.2559 80.3455 19.2559C81.2205 19.2559 81.8722 19.1305 82.3005 18.8799C82.7289 18.6292 82.9431 18.2965 82.9431 17.8818C82.9431 17.5537 82.8246 17.319 82.5877 17.1777C82.3552 17.041 81.92 16.9727 81.282 16.9727H80.0652C79.6049 16.9727 79.238 17.0798 78.9646 17.2939C78.6957 17.5127 78.5613 17.8066 78.5613 18.1758ZM79.2517 11.8867C79.2517 12.3607 79.3725 12.7253 79.614 12.9805C79.8601 13.2357 80.211 13.3633 80.6668 13.3633C81.5964 13.3633 82.0613 12.8665 82.0613 11.873C82.0613 11.3809 81.9451 11.0026 81.7127 10.7383C81.4848 10.4694 81.1362 10.335 80.6668 10.335C80.2019 10.335 79.8487 10.4671 79.6072 10.7314C79.3702 10.9958 79.2517 11.3809 79.2517 11.8867ZM85.0415 9.43945H86.7915L88.3296 13.7256C88.562 14.3363 88.7169 14.9105 88.7944 15.4482H88.8491C88.8901 15.1976 88.9653 14.8945 89.0747 14.5391C89.1841 14.179 89.7628 12.4792 90.811 9.43945H92.5473L89.3139 18.0049C88.7261 19.5771 87.7462 20.3633 86.3745 20.3633C86.019 20.3633 85.6727 20.3245 85.3354 20.2471V18.9756C85.577 19.0303 85.8527 19.0576 86.1626 19.0576C86.9373 19.0576 87.4819 18.6087 87.7964 17.7109L88.0766 17L85.0415 9.43945Z" fill="#FDFEFF"/>
</svg>
