<svg width="105" height="21" viewBox="0 0 105 21" fill="none" xmlns="http://www.w3.org/2000/svg">
<path d="M7.30469 16H4.27734V4.24219H0.400391V1.72266H11.1816V4.24219H7.30469V16ZM19.6383 4.87695C20.0419 4.87695 20.3772 4.90625 20.6441 4.96484L20.4195 7.75781C20.1786 7.69271 19.8857 7.66016 19.5406 7.66016C18.5901 7.66016 17.8479 7.9043 17.3141 8.39258C16.7867 8.88086 16.523 9.56445 16.523 10.4434V16H13.5445V5.08203H15.8004L16.2398 6.91797H16.3863C16.7249 6.30599 17.1806 5.81445 17.7535 5.44336C18.3329 5.06576 18.9612 4.87695 19.6383 4.87695ZM21.4641 5.08203H24.7258L26.7863 11.2246C26.9621 11.7585 27.0826 12.39 27.1477 13.1191H27.2062C27.2779 12.4486 27.4178 11.8171 27.6262 11.2246L29.6477 5.08203H32.841L28.2219 17.3965C27.7987 18.5358 27.1932 19.3887 26.4055 19.9551C25.6242 20.5215 24.7095 20.8047 23.6613 20.8047C23.147 20.8047 22.6424 20.7493 22.1477 20.6387V18.2754C22.5057 18.36 22.8964 18.4023 23.3195 18.4023C23.8469 18.4023 24.3059 18.2396 24.6965 17.9141C25.0936 17.5951 25.4029 17.11 25.6242 16.459L25.8 15.9219L21.4641 5.08203ZM43.6703 8.44141H44.6664C45.5974 8.44141 46.294 8.25911 46.7562 7.89453C47.2185 7.52344 47.4496 6.98633 47.4496 6.2832C47.4496 5.57357 47.2543 5.04948 46.8637 4.71094C46.4796 4.3724 45.8741 4.20312 45.0473 4.20312H43.6703V8.44141ZM50.5062 6.17578C50.5062 7.71224 50.0245 8.88737 49.0609 9.70117C48.1039 10.515 46.74 10.9219 44.9691 10.9219H43.6703V16H40.643V1.72266H45.2035C46.9353 1.72266 48.2504 2.09701 49.1488 2.8457C50.0538 3.58789 50.5062 4.69792 50.5062 6.17578ZM55.7402 10.5215C55.7402 11.6022 55.916 12.4193 56.2676 12.9727C56.6257 13.526 57.2051 13.8027 58.0059 13.8027C58.8001 13.8027 59.3698 13.5293 59.7148 12.9824C60.0664 12.429 60.2422 11.6087 60.2422 10.5215C60.2422 9.44076 60.0664 8.63021 59.7148 8.08984C59.3633 7.54948 58.7871 7.2793 57.9863 7.2793C57.1921 7.2793 56.6191 7.54948 56.2676 8.08984C55.916 8.6237 55.7402 9.43424 55.7402 10.5215ZM63.2891 10.5215C63.2891 12.2988 62.8203 13.6888 61.8828 14.6914C60.9453 15.694 59.64 16.1953 57.9668 16.1953C56.9186 16.1953 55.9941 15.9674 55.1934 15.5117C54.3926 15.0495 53.7773 14.3887 53.3477 13.5293C52.918 12.6699 52.7031 11.6673 52.7031 10.5215C52.7031 8.73763 53.1686 7.35091 54.0996 6.36133C55.0306 5.37174 56.3392 4.87695 58.0254 4.87695C59.0736 4.87695 59.998 5.10482 60.7988 5.56055C61.5996 6.01628 62.2148 6.67057 62.6445 7.52344C63.0742 8.3763 63.2891 9.37565 63.2891 10.5215ZM73.7672 12.7578C73.7672 13.8776 73.3766 14.7305 72.5953 15.3164C71.8206 15.9023 70.6585 16.1953 69.109 16.1953C68.3147 16.1953 67.6376 16.14 67.0777 16.0293C66.5178 15.9251 65.9938 15.7689 65.5055 15.5605V13.0996C66.0589 13.36 66.6806 13.5781 67.3707 13.7539C68.0673 13.9297 68.6793 14.0176 69.2066 14.0176C70.2874 14.0176 70.8277 13.7051 70.8277 13.0801C70.8277 12.8457 70.7561 12.6569 70.6129 12.5137C70.4697 12.3639 70.2223 12.1979 69.8707 12.0156C69.5191 11.8268 69.0504 11.6087 68.4645 11.3613C67.6246 11.0098 67.0061 10.6842 66.609 10.3848C66.2184 10.0853 65.9319 9.74349 65.7496 9.35938C65.5738 8.96875 65.4859 8.49023 65.4859 7.92383C65.4859 6.95378 65.8603 6.20508 66.609 5.67773C67.3642 5.14388 68.4319 4.87695 69.8121 4.87695C71.1272 4.87695 72.4065 5.16341 73.65 5.73633L72.7516 7.88477C72.2047 7.65039 71.6936 7.45833 71.2184 7.30859C70.7431 7.15885 70.2581 7.08398 69.7633 7.08398C68.8844 7.08398 68.4449 7.32161 68.4449 7.79688C68.4449 8.0638 68.5849 8.29492 68.8648 8.49023C69.1513 8.68555 69.773 8.97526 70.7301 9.35938C71.5829 9.70443 72.2079 10.0267 72.6051 10.3262C73.0022 10.6257 73.2952 10.9707 73.484 11.3613C73.6728 11.752 73.7672 12.2174 73.7672 12.7578ZM81.091 13.8223C81.6119 13.8223 82.2369 13.7083 82.966 13.4805V15.6973C82.2238 16.0293 81.3124 16.1953 80.2316 16.1953C79.0402 16.1953 78.1711 15.8958 77.6242 15.2969C77.0839 14.6914 76.8137 13.7865 76.8137 12.582V7.31836H75.3879V6.05859L77.0285 5.0625L77.8879 2.75781H79.7922V5.08203H82.8488V7.31836H79.7922V12.582C79.7922 13.0052 79.9094 13.3177 80.1438 13.5195C80.3846 13.7214 80.7004 13.8223 81.091 13.8223ZM100.768 14.6035C100.768 14.0566 100.914 13.6432 101.207 13.3633C101.5 13.0833 101.926 12.9434 102.486 12.9434C103.027 12.9434 103.443 13.0866 103.736 13.373C104.036 13.6595 104.186 14.0697 104.186 14.6035C104.186 15.1178 104.036 15.5247 103.736 15.8242C103.437 16.1172 103.02 16.2637 102.486 16.2637C101.939 16.2637 101.516 16.1204 101.217 15.834C100.917 15.541 100.768 15.1309 100.768 14.6035Z" fill="#292929"/>
<path d="M85.4559 2.25977C85.4559 1.28971 85.9962 0.804688 87.077 0.804688C88.1577 0.804688 88.698 1.28971 88.698 2.25977C88.698 2.72201 88.5613 3.08333 88.2879 3.34375C88.021 3.59766 87.6173 3.72461 87.077 3.72461C85.9962 3.72461 85.4559 3.23633 85.4559 2.25977ZM88.5613 16H85.5828V5.08203H88.5613V16ZM96.6957 13.8223C97.2165 13.8223 97.8415 13.7083 98.5707 13.4805V15.6973C97.8285 16.0293 96.9171 16.1953 95.8363 16.1953C94.6449 16.1953 93.7758 15.8958 93.2289 15.2969C92.6885 14.6914 92.4184 13.7865 92.4184 12.582V7.31836H90.9926V6.05859L92.6332 5.0625L93.4926 2.75781H95.3969V5.08203H98.4535V7.31836H95.3969V12.582C95.3969 13.0052 95.5141 13.3177 95.7484 13.5195C95.9893 13.7214 96.3051 13.8223 96.6957 13.8223Z" fill="#0086B0"/>
</svg>
